<?xml version="1.0" standalone="no"?>
<!DOCTYPE svg PUBLIC "-//W3C//DTD SVG 20010904//EN"
 "http://www.w3.org/TR/2001/REC-SVG-20010904/DTD/svg10.dtd">
<svg version="1.0" xmlns="http://www.w3.org/2000/svg"
 width="260.000000pt" height="260.000000pt" viewBox="0 0 260.000000 260.000000"
 preserveAspectRatio="xMidYMid meet">
<metadata>
Created by potrace 1.14, written by Peter Selinger 2001-2017
</metadata>
<g transform="translate(0.000000,260.000000) scale(0.100000,-0.100000)"
fill="#000000" stroke="none">
<path d="M1227 2594 c-1 -1 -31 -4 -67 -8 -36 -3 -76 -8 -90 -12 -14 -3 -38
-7 -55 -10 -57 -10 -161 -47 -247 -89 -234 -116 -420 -299 -539 -530 -42 -84
-76 -159 -85 -195 -42 -158 -53 -205 -59 -260 -11 -86 -11 -301 -1 -370 5 -30
9 -61 9 -68 0 -7 12 -15 26 -17 147 -28 242 -67 366 -153 44 -30 82 -58 85
-62 3 -3 23 -19 45 -35 22 -17 42 -32 45 -35 13 -14 78 -60 85 -60 5 0 -3 12
-17 28 -64 69 -136 229 -164 363 -21 100 -24 324 -5 414 42 204 132 371 263
489 238 213 605 237 868 55 182 -126 299 -316 344 -558 14 -75 15 -307 2 -366
-20 -88 -49 -182 -71 -226 -14 -27 -24 -49 -22 -49 2 0 15 9 28 21 227 198
350 288 481 351 l67 32 -4 111 c-2 60 -6 124 -9 140 -17 97 -23 129 -30 153
-78 284 -222 515 -421 678 -136 110 -288 189 -444 228 -54 14 -85 20 -161 31
-36 6 -218 13 -223 9z"/>
<path d="M1183 1730 c-125 -26 -191 -119 -198 -283 -2 -40 -9 -94 -15 -122 -7
-27 -14 -88 -15 -135 -4 -80 -1 -94 48 -240 28 -85 51 -157 52 -160 10 -42 65
-127 65 -100 0 7 7 10 15 6 8 -3 15 -2 15 2 0 14 44 9 75 -9 17 -9 29 -21 28
-27 -1 -5 -4 -21 -7 -36 -3 -14 -14 -39 -25 -54 -19 -28 -21 -28 -109 -24 -64
3 -92 0 -97 -9 -5 -7 -4 -10 2 -6 6 4 19 0 29 -8 10 -8 29 -15 42 -15 12 0 22
-6 22 -12 0 -9 4 -8 10 2 8 12 13 13 30 3 18 -12 49 -11 123 3 23 5 27 2 27
-16 0 -19 4 -22 33 -17 17 3 42 7 54 10 14 4 32 -2 48 -14 20 -17 25 -17 25
-5 0 16 18 23 64 25 16 0 35 6 42 12 8 6 21 8 30 5 14 -5 15 -4 4 9 -10 12
-25 14 -66 9 -65 -7 -94 6 -94 44 0 29 34 60 45 42 13 -21 80 -40 153 -44 43
-2 94 -8 115 -14 47 -12 48 -7 2 12 -19 8 -36 21 -36 28 -4 37 3 134 10 147
13 25 -3 103 -64 311 -66 227 -72 242 -114 294 -17 21 -32 42 -32 45 -7 31
-11 66 -13 121 -5 106 -45 171 -126 206 -43 19 -141 26 -197 14z m199 -1172
c-4 -3 -23 -8 -42 -10 -35 -3 -35 -2 -33 35 1 20 8 47 14 58 11 21 13 19 40
-27 15 -27 25 -52 21 -56z"/>
<path d="M2219 799 c-134 -89 -287 -189 -339 -222 -96 -61 -297 -167 -341
-181 -13 -5 -28 -10 -34 -12 -5 -2 -41 -11 -80 -20 -80 -18 -171 -14 -255 11
-57 17 -228 107 -427 226 -237 141 -394 206 -513 211 -64 3 -65 3 -62 -21 4
-35 82 -187 143 -278 62 -92 197 -229 290 -295 78 -55 200 -119 284 -148 68
-24 62 -22 170 -46 111 -24 368 -24 483 0 384 81 686 326 858 696 22 45 84
222 84 236 0 13 -38 -11 -261 -157z"/>
</g>
</svg>
